<svg id="Capa_1" enable-background="new 0 0 512 512" viewBox="0 0 512 512" xmlns="http://www.w3.org/2000/svg" xmlns:xlink="http://www.w3.org/1999/xlink"><linearGradient id="lg1"><stop offset="0" stop-color="#f5fbff"/><stop offset="1" stop-color="#dbd5ef"/></linearGradient><linearGradient id="SVGID_1_" gradientTransform="matrix(0 1 1 0 1064 -1064)" gradientUnits="userSpaceOnUse" x1="1111.095" x2="1160.902" xlink:href="#lg1" y1="-772.155" y2="-714.36"/><linearGradient id="lg2"><stop offset="0" stop-color="#dbd5ef" stop-opacity="0"/><stop offset=".2853" stop-color="#d9d2ee" stop-opacity=".285"/><stop offset=".4739" stop-color="#d4c9e9" stop-opacity=".474"/><stop offset=".6346" stop-color="#cbbae2" stop-opacity=".635"/><stop offset=".7795" stop-color="#bfa5d7" stop-opacity=".78"/><stop offset=".9126" stop-color="#af8aca" stop-opacity=".913"/><stop offset="1" stop-color="#a274bf"/></linearGradient><linearGradient id="SVGID_00000102502655784600268550000018267871208742898321_" gradientUnits="userSpaceOnUse" x1="295.029" x2="313.443" xlink:href="#lg2" y1="57.354" y2="86.599"/><linearGradient id="lg3"><stop offset="0" stop-color="#ffa1ae"/><stop offset="1" stop-color="#ff4565"/></linearGradient><linearGradient id="SVGID_00000181056028732932665400000007938958313807830187_" gradientUnits="userSpaceOnUse" x1="125.912" x2="300.474" xlink:href="#lg3" y1="229.376" y2="299.339"/><linearGradient id="lg4"><stop offset="0" stop-color="#fe0364" stop-opacity="0"/><stop offset=".2343" stop-color="#f90362" stop-opacity=".234"/><stop offset=".5173" stop-color="#ea035b" stop-opacity=".517"/><stop offset=".8243" stop-color="#d20250" stop-opacity=".824"/><stop offset="1" stop-color="#c00148"/></linearGradient><linearGradient id="SVGID_00000072247705063528927420000013935195293165755040_" gradientTransform="matrix(.906 .423 -.423 .906 149.49 -80.367)" gradientUnits="userSpaceOnUse" x1="242.538" x2="242.538" xlink:href="#lg4" y1="447.574" y2="486.09"/><linearGradient id="SVGID_00000114040478670140413290000000678081605426634906_" gradientTransform="matrix(.906 .423 -.423 .906 149.49 -80.367)" gradientUnits="userSpaceOnUse" x1="315.56" x2="371.181" xlink:href="#lg4" y1="280.507" y2="280.507"/><linearGradient id="SVGID_00000170259703975680276500000005995617232515301251_" gradientUnits="userSpaceOnUse" x1="240.377" x2="433.899" xlink:href="#lg3" y1="272.172" y2="361.712"/><linearGradient id="SVGID_00000159466808639884515270000008646808355005958064_" gradientUnits="userSpaceOnUse" x1="327.217" x2="327.217" xlink:href="#lg4" y1="455.635" y2="494.15"/><linearGradient id="SVGID_00000130618806880414432150000014200301622161051545_" gradientUnits="userSpaceOnUse" x1="400.239" x2="455.86" xlink:href="#lg4" y1="288.568" y2="288.568"/><linearGradient id="SVGID_00000072963212825653258770000000934697203591016326_" gradientUnits="userSpaceOnUse" x1="397.525" x2="330.611" xlink:href="#lg4" y1="178.665" y2="97.309"/><linearGradient id="SVGID_00000150100142110810539800000006079512814574122883_" gradientTransform="matrix(0 1 1 0 1064 -1064)" gradientUnits="userSpaceOnUse" x1="1247.191" x2="1165.432" xlink:href="#lg3" y1="-708.94" y2="-755.615"/><linearGradient id="SVGID_00000069375810340576767820000007085333900242669987_" gradientUnits="userSpaceOnUse" x1="376.04" x2="297.764" xlink:href="#lg4" y1="149.541" y2="125.296"/><linearGradient id="SVGID_00000052106354166423201750000013106508907566188459_" gradientTransform="matrix(0 1 1 0 1064 -1064)" gradientUnits="userSpaceOnUse" x1="1119.935" x2="1169.743" xlink:href="#lg1" y1="-779.774" y2="-721.979"/><linearGradient id="SVGID_00000039838279814487192540000007591252860896721838_" gradientUnits="userSpaceOnUse" x1="341.146" x2="351.616" xlink:href="#lg2" y1="112.629" y2="150.178"/><linearGradient id="SVGID_00000146488625204994551670000011389458999070784177_" gradientUnits="userSpaceOnUse" x1="329.835" x2="378.245" xlink:href="#lg2" y1="77.578" y2="77.578"/><linearGradient id="SVGID_00000121959558209450873630000000142724188550933161_" gradientUnits="userSpaceOnUse" x1="340.236" x2="298.896" xlink:href="#lg2" y1="132.208" y2="132.027"/><linearGradient id="SVGID_00000095303629939506704860000010008658102922136448_" gradientUnits="userSpaceOnUse" x1="285.915" x2="251.206" xlink:href="#lg4" y1="297.844" y2="297.844"/><linearGradient id="SVGID_00000137090494202163339020000005726411767135400110_" gradientUnits="userSpaceOnUse" x1="271.699" x2="271.699" xlink:href="#lg4" y1="288.849" y2="269.427"/><linearGradient id="SVGID_00000163032431568243609850000013046034088482910339_" gradientUnits="userSpaceOnUse" x1="328.907" x2="261.888" xlink:href="#lg4" y1="341.823" y2="303.897"/><linearGradient id="SVGID_00000125603777935036674670000004818086976521390213_" gradientUnits="userSpaceOnUse" x1="384.351" x2="316.466" xlink:href="#lg4" y1="381.682" y2="348.779"/><linearGradient id="SVGID_00000108275269224400111220000003263954040085764999_" gradientUnits="userSpaceOnUse" x1="401.77" x2="368.34" xlink:href="#lg4" y1="375.741" y2="375.741"/><linearGradient id="SVGID_00000024716218694090815330000017112329902710184592_" gradientUnits="userSpaceOnUse" x1="382.736" x2="382.736" xlink:href="#lg4" y1="366.085" y2="347.647"/><linearGradient id="SVGID_00000076574636276670209280000007874276106133883275_" gradientUnits="userSpaceOnUse" x1="442.709" x2="385.215" xlink:href="#lg4" y1="430.588" y2="388.333"/><linearGradient id="SVGID_00000008833916524417915780000008535653217292571554_" gradientUnits="userSpaceOnUse" x1="235.152" x2="297.842" xlink:href="#lg1" y1="278.517" y2="311.766"/><linearGradient id="SVGID_00000021086305785167511140000006656977394343330231_" gradientUnits="userSpaceOnUse" x1="271.699" x2="271.699" xlink:href="#lg2" y1="310.322" y2="348.956"/><linearGradient id="SVGID_00000124156592977888873290000016440063597440534181_" gradientUnits="userSpaceOnUse" x1="278.35" x2="293.243" xlink:href="#lg2" y1="318.346" y2="342.937"/><linearGradient id="SVGID_00000072968431705811368650000012203538487848342679_" gradientUnits="userSpaceOnUse" x1="279.853" x2="307.822" xlink:href="#lg2" y1="297.844" y2="297.844"/><linearGradient id="SVGID_00000152229663351686107970000002007650902329527444_" gradientUnits="userSpaceOnUse" x1="319.477" x2="331.945" xlink:href="#lg1" y1="333.005" y2="339.47"/><linearGradient id="SVGID_00000086673949053510812360000010996726867891882686_" gradientUnits="userSpaceOnUse" x1="315.864" x2="338.493" xlink:href="#lg2" y1="331.465" y2="342.549"/><linearGradient id="SVGID_00000150067188997501526480000003440294142277734279_" gradientUnits="userSpaceOnUse" x1="295.333" x2="283.904" xlink:href="#lg2" y1="399.586" y2="436.3"/><linearGradient id="SVGID_00000117655214596716106590000008274059943771335862_" gradientUnits="userSpaceOnUse" x1="346.19" x2="408.88" xlink:href="#lg1" y1="356.414" y2="389.663"/><linearGradient id="SVGID_00000029018100256787788910000005412429607557941637_" gradientUnits="userSpaceOnUse" x1="382.736" x2="382.736" xlink:href="#lg2" y1="388.219" y2="426.853"/><linearGradient id="SVGID_00000140721075153365732090000007105773679046117268_" gradientUnits="userSpaceOnUse" x1="389.387" x2="404.28" xlink:href="#lg2" y1="396.243" y2="420.834"/><linearGradient id="SVGID_00000056410307915080095140000004387412717534291867_" gradientUnits="userSpaceOnUse" x1="390.891" x2="418.86" xlink:href="#lg2" y1="375.741" y2="375.741"/><g><g><g><path d="m327.217 155.156c-27.829 0-48.815-33.351-48.815-77.578s20.986-77.578 48.815-77.578 48.815 33.352 48.815 77.578-20.985 77.578-48.815 77.578zm0-32.957c3.948 0 15.858-15.825 15.858-44.621s-11.91-44.621-15.858-44.621-15.858 15.825-15.858 44.621 11.91 44.621 15.858 44.621z" fill="url(#SVGID_1_)"/></g><path d="m311.359 77.578c0-28.796 11.91-44.621 15.858-44.621h-40.426c-5.326 12.461-8.389 27.744-8.389 44.621 0 14.186 2.168 27.242 6.019 38.448l28.908-19.117c-1.204-5.582-1.97-12.039-1.97-19.331z" fill="url(#SVGID_00000102502655784600268550000018267871208742898321_)"/><g><path d="m255.616 509.176-186.33-86.887c-15.051-7.018-21.563-24.909-14.544-39.961l120.628-258.689c4.136-8.87 12.33-15.172 21.964-16.893l123.731-22.106c12.493-2.232 25.043 3.62 31.364 14.625l62.599 108.993c4.874 8.487 5.313 18.814 1.177 27.684l-120.628 258.689c-7.019 15.051-24.91 21.563-39.961 14.545z" fill="url(#SVGID_00000181056028732932665400000007938958313807830187_)"/><path d="m109.855 264.135-55.114 118.193c-7.018 15.051-.507 32.942 14.545 39.961l186.33 86.887c15.051 7.018 32.942.507 39.961-14.544l55.114-118.193z" fill="url(#SVGID_00000072247705063528927420000013935195293165755040_)"/><path d="m415.028 208.258-62.599-108.993c-6.321-11.005-18.87-16.857-31.364-14.625l-29.476 5.266-167.014 358.164 131.041 61.105c15.051 7.018 32.942.507 39.961-14.544l120.629-258.689c4.135-8.87 3.696-19.197-1.178-27.684z" fill="url(#SVGID_00000114040478670140413290000000678081605426634906_)"/></g><g><path d="m430.014 497.516h-205.593c-16.607 0-30.07-13.463-30.07-30.07v-285.431c0-9.787 4.763-18.961 12.767-24.593l102.796-72.326c10.38-7.303 24.227-7.303 34.606 0l102.796 72.326c8.004 5.632 12.767 14.806 12.767 24.593v285.432c0 16.607-13.462 30.069-30.069 30.069z" fill="url(#SVGID_00000170259703975680276500000005995617232515301251_)"/><path d="m194.351 337.035v130.411c0 16.607 13.463 30.07 30.07 30.07h205.593c16.607 0 30.07-13.463 30.07-30.07v-130.411z" fill="url(#SVGID_00000159466808639884515270000008646808355005958064_)"/><path d="m447.317 157.422-102.797-72.326c-10.38-7.303-24.227-7.303-34.606 0l-24.488 17.229v395.191h144.588c16.607 0 30.07-13.463 30.07-30.07v-285.431c-.001-9.787-4.763-18.961-12.767-24.593z" fill="url(#SVGID_00000130618806880414432150000014200301622161051545_)"/></g><g><path d="m309.49 155.119 150.593 150.593v-123.697c0-9.787-4.763-18.961-12.767-24.593l-82.256-57.874z" fill="url(#SVGID_00000072963212825653258770000000934697203591016326_)"/><path d="m327.217 161.672c15.052 0 27.253-12.202 27.253-27.253s-12.202-27.253-27.253-27.253c-3.574 0-6.988.688-10.116 1.939l-15.145 35.56c4.049 9.974 13.834 17.007 25.261 17.007z" fill="url(#SVGID_00000150100142110810539800000006079512814574122883_)"/><path d="m327.217 161.672c15.052 0 27.253-12.202 27.253-27.253s-12.202-27.253-27.253-27.253c-3.574 0-6.988.688-10.116 1.939l-15.145 35.56c4.049 9.974 13.834 17.007 25.261 17.007z" fill="url(#SVGID_00000069375810340576767820000007085333900242669987_)"/><g><path d="m327.213 155.154c9.386 0 17.994-3.797 25.285-10.533 14.317-13.209 23.531-37.742 23.531-67.048 0-.791-.013-1.582-.026-2.373-.092-5.009-.448-9.874-1.055-14.554h-33.379c.817 4.364 1.345 9.228 1.463 14.554.026.778.039 1.569.039 2.373 0 13.433-2.584 24.032-5.748 31.533-3.625 8.582-8.002 13.091-10.111 13.091s-6.486-4.508-10.111-13.091c-10.045 4.021-17.138 13.829-17.138 25.311 0 3.625.712 7.079 2.004 10.243 7.278 6.711 15.873 10.494 25.246 10.494z" fill="url(#SVGID_00000052106354166423201750000013106508907566188459_)"/></g><g><path d="m327.213 155.154c9.386 0 17.994-3.797 25.285-10.533 14.317-13.209 23.531-37.742 23.531-67.048 0-.791-.013-1.582-.026-2.373-.092-5.009-.448-9.874-1.055-14.554h-33.379c.817 4.364 1.345 9.228 1.463 14.554.026.778.039 1.569.039 2.373 0 13.433-2.584 24.032-5.748 31.533-3.625 8.582-8.002 13.091-10.111 13.091s-6.486-4.508-10.111-13.091c-10.045 4.021-17.138 13.829-17.138 25.311 0 3.625.712 7.079 2.004 10.243 7.278 6.711 15.873 10.494 25.246 10.494z" fill="url(#SVGID_00000039838279814487192540000007591252860896721838_)"/></g></g><path d="m328.213 121.933c4.643-2.141 14.862-17.676 14.862-44.355 0-26.68-10.22-42.215-14.862-44.356v-33.185c27.33.789 47.819 33.846 47.819 77.541s-20.489 76.751-47.819 77.54z" fill="url(#SVGID_00000146488625204994551670000011389458999070784177_)"/><g><path d="m335.868 112.275c-3.282 6.524-6.817 9.927-8.651 9.927-2.117 0-6.493-4.518-10.119-13.098-10.038 4.021-17.129 13.827-17.129 25.313 0 3.626.709 7.08 1.996 10.241 7.283 6.716 15.873 10.494 25.253 10.494s17.99-3.799 25.283-10.535c8.144-7.516 14.637-18.699 18.719-32.344h-35.352z" fill="url(#SVGID_00000121959558209450873630000000142724188550933161_)"/></g></g><ellipse cx="271.698" cy="297.844" fill="url(#SVGID_00000095303629939506704860000010008658102922136448_)" rx="22.859" ry="35.674"/><ellipse cx="271.698" cy="297.844" fill="url(#SVGID_00000137090494202163339020000005726411767135400110_)" rx="22.859" ry="35.674"/><path d="m296.843 391.648-53.138-53.138h23.115c8.763 0 17.168-3.481 23.364-9.678 6.197-6.197 9.678-14.601 9.678-23.364v-48.053l42.686 42.686z" fill="url(#SVGID_00000163032431568243609850000013046034088482910339_)"/><path d="m460.083 467.446v-144.298l-80.073-80.073-103.956 188.789 65.652 65.652h88.307c16.608 0 30.07-13.462 30.07-30.07z" fill="url(#SVGID_00000125603777935036674670000004818086976521390213_)"/><ellipse cx="382.736" cy="375.741" fill="url(#SVGID_00000108275269224400111220000003263954040085764999_)" rx="20.954" ry="35.198"/><ellipse cx="382.736" cy="375.741" fill="url(#SVGID_00000024716218694090815330000017112329902710184592_)" rx="20.954" ry="35.198"/><path d="m460.083 384.506-49.01-49.01v43.452c0 9.727-3.864 19.056-10.742 25.934-6.496 6.497-15.195 10.319-24.374 10.709l-21.132.9 80.54 80.54c14.053-2.526 24.718-14.806 24.718-29.585z" fill="url(#SVGID_00000076574636276670209280000007874276106133883275_)"/><g><path d="m305.208 265.433c-1.856-4.198-4.441-7.579-7.745-10.164-3.304-2.575-7.181-4.431-11.612-5.558-4.441-1.127-9.154-1.701-14.148-1.701-5.17 0-9.96.573-14.401 1.701-4.431 1.127-8.26 2.983-11.486 5.558-3.226 2.585-5.772 5.966-7.618 10.164-1.856 4.188-2.789 9.27-2.789 15.236v34.35c0 5.976.933 11.048 2.789 15.246 1.846 4.188 4.392 7.579 7.618 10.155 3.226 2.585 7.055 4.441 11.486 5.568 4.441 1.127 9.231 1.691 14.401 1.691 4.995 0 9.707-.564 14.148-1.691 4.431-1.127 8.308-2.983 11.612-5.568 3.304-2.575 5.889-5.966 7.745-10.155 1.846-4.198 2.779-9.27 2.779-15.246v-34.35c0-5.966-.933-11.048-2.779-15.236zm-21.417 49.586c0 4.033-1.088 6.977-3.265 8.833s-5.121 2.779-8.823 2.779c-7.91 0-11.855-3.868-11.855-11.612v-34.35c0-7.735 3.945-11.612 11.855-11.612 3.702 0 6.647.933 8.823 2.779 2.177 1.866 3.265 4.8 3.265 8.833z" fill="url(#SVGID_00000008833916524417915780000008535653217292571554_)"/><path d="m283.791 288.568v26.452c0 4.033-1.088 6.977-3.265 8.833s-5.121 2.779-8.823 2.779c-7.91 0-11.855-3.868-11.855-11.612v-26.452h-24.438v26.452c0 5.976.933 11.048 2.789 15.246 1.846 4.188 4.392 7.579 7.618 10.155 3.226 2.585 7.055 4.441 11.486 5.568 4.441 1.127 9.231 1.691 14.401 1.691 4.995 0 9.707-.564 14.148-1.691 4.431-1.127 8.308-2.983 11.612-5.568 3.304-2.575 5.889-5.966 7.745-10.155 1.846-4.198 2.779-9.27 2.779-15.246v-26.452z" fill="url(#SVGID_00000021086305785167511140000006656977394343330231_)"/><path d="m283.791 288.568v26.452c0 4.033-1.088 6.977-3.265 8.833s-5.121 2.779-8.823 2.779c-7.91 0-11.855-3.868-11.855-11.612v-26.452h-24.438v26.452c0 5.976.933 11.048 2.789 15.246 1.846 4.188 4.392 7.579 7.618 10.155 3.226 2.585 7.055 4.441 11.486 5.568 4.441 1.127 9.231 1.691 14.401 1.691 4.995 0 9.707-.564 14.148-1.691 4.431-1.127 8.308-2.983 11.612-5.568 3.304-2.575 5.889-5.966 7.745-10.155 1.846-4.198 2.779-9.27 2.779-15.246v-26.452z" fill="url(#SVGID_00000124156592977888873290000016440063597440534181_)"/><path d="m297.463 255.269c-3.304-2.575-7.181-4.431-11.612-5.558-4.441-1.127-9.154-1.701-14.148-1.701-4.201 0-8.139.398-11.855 1.145v31.514c0-7.735 3.945-11.612 11.855-11.612 3.702 0 6.647.933 8.823 2.779 2.177 1.866 3.265 4.8 3.265 8.833v34.35c0 4.033-1.088 6.977-3.265 8.833s-5.121 2.779-8.823 2.779c-7.91 0-11.855-3.868-11.855-11.612v31.523c3.716.744 7.654 1.136 11.855 1.136 4.995 0 9.707-.564 14.148-1.691 4.431-1.127 8.308-2.983 11.612-5.568 3.304-2.575 5.889-5.966 7.745-10.155 1.846-4.198 2.779-9.27 2.779-15.246v-34.35c0-5.966-.933-11.048-2.779-15.236-1.856-4.197-4.441-7.579-7.745-10.163z" fill="url(#SVGID_00000072968431705811368650000012203538487848342679_)"/></g><g><path d="m368.705 238.093c3.387 0 6.611 1.171 9.677 3.51 3.061 2.339 4.596 5.442 4.596 9.315 0 1.775-.325 3.305-.968 4.594l-85.152 174.416c-.81 1.771-2.261 3.226-4.356 4.357-2.098 1.124-4.275 1.692-6.531 1.692-4.196 0-7.501-1.372-9.918-4.113-2.419-2.744-3.63-5.647-3.63-8.708 0-1.451.401-2.982 1.211-4.598l84.909-174.416c.968-2.094 2.337-3.628 4.113-4.598 1.774-.966 3.789-1.451 6.049-1.451z" fill="url(#SVGID_00000152229663351686107970000002007650902329527444_)"/><path d="m368.705 238.093c3.387 0 6.611 1.171 9.677 3.51 3.061 2.339 4.596 5.442 4.596 9.315 0 1.775-.325 3.305-.968 4.594l-85.152 174.416c-.81 1.771-2.261 3.226-4.356 4.357-2.098 1.124-4.275 1.692-6.531 1.692-4.196 0-7.501-1.372-9.918-4.113-2.419-2.744-3.63-5.647-3.63-8.708 0-1.451.401-2.982 1.211-4.598l84.909-174.416c.968-2.094 2.337-3.628 4.113-4.598 1.774-.966 3.789-1.451 6.049-1.451z" fill="url(#SVGID_00000086673949053510812360000010996726867891882686_)"/><path d="m291.305 382.261-17.671 36.298c-.81 1.617-1.211 3.147-1.211 4.598 0 3.061 1.211 5.963 3.63 8.707 2.418 2.741 5.722 4.113 9.918 4.113 2.256 0 4.433-.568 6.531-1.692 2.094-1.132 3.546-2.586 4.356-4.358l13.816-28.298z" fill="url(#SVGID_00000150067188997501526480000003440294142277734279_)"/></g><g><path d="m416.245 343.33c-1.856-4.198-4.441-7.579-7.745-10.164-3.304-2.575-7.181-4.431-11.612-5.558-4.441-1.127-9.154-1.701-14.148-1.701-5.169 0-9.96.573-14.401 1.701-4.431 1.127-8.26 2.983-11.486 5.558-3.226 2.585-5.772 5.966-7.618 10.164-1.856 4.188-2.789 9.27-2.789 15.236v34.35c0 5.976.933 11.048 2.789 15.246 1.846 4.188 4.392 7.579 7.618 10.155 3.226 2.585 7.055 4.441 11.486 5.568 4.441 1.127 9.231 1.691 14.401 1.691 4.995 0 9.707-.564 14.148-1.691 4.431-1.127 8.308-2.983 11.612-5.568 3.304-2.575 5.889-5.966 7.745-10.155 1.846-4.198 2.779-9.27 2.779-15.246v-34.35c0-5.966-.933-11.048-2.779-15.236zm-21.416 49.586c0 4.033-1.088 6.977-3.265 8.833s-5.121 2.779-8.823 2.779c-7.91 0-11.855-3.868-11.855-11.612v-34.35c0-7.735 3.945-11.612 11.855-11.612 3.702 0 6.647.933 8.823 2.779 2.177 1.866 3.265 4.8 3.265 8.833z" fill="url(#SVGID_00000117655214596716106590000008274059943771335862_)"/><path d="m394.829 366.465v26.452c0 4.033-1.088 6.977-3.265 8.833s-5.121 2.779-8.823 2.779c-7.91 0-11.855-3.868-11.855-11.612v-26.452h-24.439v26.452c0 5.976.933 11.048 2.789 15.246 1.846 4.188 4.392 7.579 7.618 10.155 3.226 2.585 7.055 4.441 11.486 5.568 4.441 1.127 9.231 1.691 14.401 1.691 4.995 0 9.707-.564 14.148-1.691 4.431-1.127 8.308-2.983 11.612-5.568 3.304-2.575 5.889-5.966 7.745-10.155 1.846-4.198 2.779-9.27 2.779-15.246v-26.452z" fill="url(#SVGID_00000029018100256787788910000005412429607557941637_)"/><path d="m394.829 366.465v26.452c0 4.033-1.088 6.977-3.265 8.833s-5.121 2.779-8.823 2.779c-7.91 0-11.855-3.868-11.855-11.612v-26.452h-24.439v26.452c0 5.976.933 11.048 2.789 15.246 1.846 4.188 4.392 7.579 7.618 10.155 3.226 2.585 7.055 4.441 11.486 5.568 4.441 1.127 9.231 1.691 14.401 1.691 4.995 0 9.707-.564 14.148-1.691 4.431-1.127 8.308-2.983 11.612-5.568 3.304-2.575 5.889-5.966 7.745-10.155 1.846-4.198 2.779-9.27 2.779-15.246v-26.452z" fill="url(#SVGID_00000140721075153365732090000007105773679046117268_)"/><path d="m408.501 333.166c-3.304-2.575-7.181-4.431-11.612-5.558-4.441-1.127-9.154-1.701-14.148-1.701-4.201 0-8.139.398-11.855 1.145v31.514c0-7.735 3.945-11.612 11.855-11.612 3.702 0 6.647.933 8.823 2.779 2.177 1.866 3.265 4.8 3.265 8.833v34.35c0 4.033-1.088 6.977-3.265 8.833s-5.121 2.779-8.823 2.779c-7.91 0-11.855-3.868-11.855-11.612v31.523c3.716.744 7.654 1.136 11.855 1.136 4.995 0 9.707-.564 14.148-1.691 4.431-1.127 8.308-2.983 11.612-5.568 3.304-2.575 5.889-5.966 7.745-10.155 1.846-4.198 2.779-9.27 2.779-15.246v-34.35c0-5.966-.933-11.048-2.779-15.236-1.857-4.197-4.441-7.579-7.745-10.163z" fill="url(#SVGID_00000056410307915080095140000004387412717534291867_)"/></g></g><g/><g/><g/><g/><g/><g/><g/><g/><g/><g/><g/><g/><g/><g/><g/></svg>