<svg id="Capa_1" enable-background="new 0 0 510 510" height="512" viewBox="0 0 510 510" width="512" xmlns="http://www.w3.org/2000/svg" xmlns:xlink="http://www.w3.org/1999/xlink"><linearGradient id="lg1"><stop offset="0" stop-color="#ffdfcf"/><stop offset="1" stop-color="#ffa78f"/></linearGradient><linearGradient id="SVGID_1_" gradientTransform="matrix(1 -.001 .001 1 1716.863 -1925.982)" gradientUnits="userSpaceOnUse" x1="-1585.398" x2="-1551.239" xlink:href="#lg1" y1="2138.041" y2="2138.041"/><linearGradient id="SVGID_00000024002808153049323400000003089296185099475596_" gradientTransform="matrix(.998 .058 -.058 .998 1730.367 -1943.438)" gradientUnits="userSpaceOnUse" x1="-1421.356" x2="-1386.991" xlink:href="#lg1" y1="2253.245" y2="2253.245"/><linearGradient id="SVGID_00000172428818771994064840000008879727887421388436_" gradientTransform="matrix(.996 -.089 .089 .996 1698.171 -1903.973)" gradientUnits="userSpaceOnUse" x1="-1810.257" x2="-1764.112" xlink:href="#lg1" y1="2000.084" y2="2000.084"/><linearGradient id="SVGID_00000150782722058240321450000012645963716636511676_" gradientTransform="matrix(.989 .148 -.148 .989 1754.111 -1978.47)" gradientUnits="userSpaceOnUse" x1="-1173.063" x2="-1140.075" xlink:href="#lg1" y1="2432.675" y2="2434.221"/><linearGradient id="SVGID_00000125571892490536552250000002496690606028906641_" gradientUnits="userSpaceOnUse" x1="160.099" x2="208.553" xlink:href="#lg1" y1="305.058" y2="443.909"/><linearGradient id="lg2"><stop offset="0" stop-color="#f89580" stop-opacity="0"/><stop offset=".9972" stop-color="#c5715a"/></linearGradient><linearGradient id="SVGID_00000127012663050126239370000008806625638102393992_" gradientUnits="userSpaceOnUse" x1="174.452" x2="163.604" xlink:href="#lg2" y1="323.856" y2="418.593"/><linearGradient id="SVGID_00000161600074439859323520000007533112910748117661_" gradientUnits="userSpaceOnUse" x1="96.397" x2="123.878" xlink:href="#lg1" y1="367.311" y2="471.449"/><linearGradient id="SVGID_00000094580830022497855310000002347414123886589609_" gradientUnits="userSpaceOnUse" x1="181.616" x2="181.616" xlink:href="#lg2" y1="462.616" y2="490.741"/><linearGradient id="SVGID_00000036944600446476396780000008640546198654549416_" gradientUnits="userSpaceOnUse" x1="213.649" x2="216.649" xlink:href="#lg2" y1="427.872" y2="371.372"/><linearGradient id="SVGID_00000053531643103375037970000010736475463813108613_" gradientTransform="matrix(1 -.001 .001 1 1752.164 -1925.982)" gradientUnits="userSpaceOnUse" x1="-1403.699" x2="-1369.54" xlink:href="#lg1" y1="2138.229" y2="2138.229"/><linearGradient id="SVGID_00000088130172345651235390000001172297737315936912_" gradientUnits="userSpaceOnUse" x1="309.852" x2="357.198" xlink:href="#lg1" y1="225.944" y2="225.258"/><linearGradient id="SVGID_00000127004270313580632200000000775742170339551378_" gradientUnits="userSpaceOnUse" x1="407.215" x2="451.13" xlink:href="#lg1" y1="244.227" y2="253.834"/><linearGradient id="SVGID_00000066486895078175336750000006805890857704641214_" gradientUnits="userSpaceOnUse" x1="437.244" x2="383.244" xlink:href="#lg2" y1="248.12" y2="256.786"/><linearGradient id="SVGID_00000160169424039328665280000011028148534657762991_" gradientUnits="userSpaceOnUse" x1="256.153" x2="296.637" xlink:href="#lg1" y1="260.747" y2="262.805"/><linearGradient id="SVGID_00000075882148547832176130000014282788126645069731_" gradientUnits="userSpaceOnUse" x1="320.107" x2="357.846" xlink:href="#lg1" y1="336.219" y2="439.145"/><linearGradient id="SVGID_00000141433706575372461210000016014279397416746660_" gradientTransform="matrix(-1 0 0 1 -3555.971 0)" gradientUnits="userSpaceOnUse" x1="-3891.519" x2="-3902.367" xlink:href="#lg2" y1="323.856" y2="418.593"/><linearGradient id="SVGID_00000006706813684635523070000011966825460997047942_" gradientUnits="userSpaceOnUse" x1="392.441" x2="426.063" xlink:href="#lg1" y1="335.787" y2="464.101"/><linearGradient id="SVGID_00000073713093527368456110000003398565527711613345_" gradientTransform="matrix(-1 0 0 1 -3555.971 0)" gradientUnits="userSpaceOnUse" x1="-3884.355" x2="-3884.355" xlink:href="#lg2" y1="462.616" y2="490.741"/><linearGradient id="SVGID_00000182524388669716186960000009029398051452486827_" gradientUnits="userSpaceOnUse" x1="388.381" x2="345.381" xlink:href="#lg2" y1="401.063" y2="331.063"/><linearGradient id="SVGID_00000098914123831556410400000008795365324644885424_" gradientUnits="userSpaceOnUse" x1="229.514" x2="284.514" y1="181.782" y2="288.782"><stop offset="0" stop-color="#fd8087"/><stop offset="1" stop-color="#e74335"/></linearGradient><linearGradient id="lg3"><stop offset="0" stop-color="#e41f2d" stop-opacity="0"/><stop offset=".3461" stop-color="#de1e2b" stop-opacity=".346"/><stop offset=".8036" stop-color="#ce1b28" stop-opacity=".804"/><stop offset="1" stop-color="#c41926"/></linearGradient><linearGradient id="SVGID_00000170246323089428441150000001011859574260131993_" gradientUnits="userSpaceOnUse" x1="170.173" x2="256.123" xlink:href="#lg3" y1="201.683" y2="145.877"/><linearGradient id="SVGID_00000098181691386897700180000009111078466697808314_" gradientUnits="userSpaceOnUse" x1="358.047" x2="244.546" xlink:href="#lg3" y1="370.065" y2="256.563"/><linearGradient id="SVGID_00000039126770033266994750000009564468406887407291_" gradientUnits="userSpaceOnUse" x1="232.601" x2="281.458" y1="244.749" y2="293.606"><stop offset="0" stop-color="#eaf9fa"/><stop offset="1" stop-color="#b3dafe"/></linearGradient><linearGradient id="lg4"><stop offset="0" stop-color="#fef0ae"/><stop offset="1" stop-color="#fac600"/></linearGradient><linearGradient id="SVGID_00000155854938232187528550000015307020169559457932_" gradientUnits="userSpaceOnUse" x1="233.805" x2="283.042" xlink:href="#lg4" y1="19.865" y2="29.18"/><linearGradient id="SVGID_00000000187395208770436960000003350067939333526449_" gradientUnits="userSpaceOnUse" x1="465.517" x2="539.203" xlink:href="#lg4" y1="260.111" y2="274.051"/><linearGradient id="SVGID_00000049180992037677507470000004628718913753115271_" gradientUnits="userSpaceOnUse" x1="-18.957" x2="54.729" xlink:href="#lg4" y1="260.111" y2="274.051"/><linearGradient id="SVGID_00000072253794783494726360000007624295119658198190_" gradientUnits="userSpaceOnUse" x1="400.107" x2="460.924" xlink:href="#lg4" y1="89.871" y2="101.377"/><linearGradient id="SVGID_00000078029219232633008840000002719718289668647325_" gradientUnits="userSpaceOnUse" x1="54.06" x2="122.944" xlink:href="#lg4" y1="89.214" y2="102.247"/><linearGradient id="SVGID_00000143602152023098285810000016208065350156806031_" gradientUnits="userSpaceOnUse" x1="325.005" x2="374.628" xlink:href="#lg4" y1="37.725" y2="47.113"/><linearGradient id="SVGID_00000181085968720908471320000006418934050652720523_" gradientUnits="userSpaceOnUse" x1="-1.033" x2="72.578" xlink:href="#lg4" y1="168.751" y2="182.677"/><linearGradient id="SVGID_00000005962546475291860080000016539381147373919630_" gradientUnits="userSpaceOnUse" x1="448.495" x2="517.599" xlink:href="#lg4" y1="166.453" y2="179.527"/><linearGradient id="SVGID_00000026164151575132864390000013757804576502627732_" gradientUnits="userSpaceOnUse" x1="134.929" x2="195.421" xlink:href="#lg4" y1="37.943" y2="49.388"/><g><g><g><g><path d="m125.165 153.143c-.012-11.723 9.516-21.271 21.239-21.283 11.734 0 21.272 9.528 21.284 21.239l.147 142.39-42.522.044z" fill="url(#SVGID_1_)"/><path d="m175.343 296.663 7.084-123.027c.665-11.544 10.232-20.588 21.781-20.588.425 0 .851.013 1.281.037 12.024.692 21.243 11.037 20.551 23.061l-7.084 123.027z" fill="url(#SVGID_00000024002808153049323400000003089296185099475596_)"/><path d="m110.853 179.061 10.393 115.759-6.843.614c-24.08 2.162-41.849 23.437-39.687 47.516l-14.309-159.36c-1.25-13.928 9.026-26.24 22.954-27.491 13.936-1.25 26.241 9.035 27.492 22.962z" fill="url(#SVGID_00000172428818771994064840000008879727887421388436_)"/><path d="m287.436 203.915-21.183 141.708c3.574-23.911-12.913-46.194-36.824-49.768l-6.795-1.016 14.711-98.412c2.068-13.837 14.956-23.373 28.794-21.305 13.829 2.067 23.365 14.955 21.297 28.793z" fill="url(#SVGID_00000150782722058240321450000012645963716636511676_)"/><path d="m258.765 438.504c-4.676 7.556-7.132 16.29-7.118 25.182l.021 26.805c.007 4.554-3.261 8.253-7.312 8.26l-114.425.115-.007-9.201c-.029-24.22-9.668-47.434-26.812-64.535l-1.429-1.429c1.99-25.951-6.938-52.576-26.777-72.415l-.862-.862-.014-15.033c-.022-23.386 18.919-42.363 42.298-42.384l111.287-.115c23.379-.022 42.363 18.912 42.384 42.298l.072 63.393c.014 14.646-4.13 28.322-11.306 39.921z" fill="url(#SVGID_00000125571892490536552250000002496690606028906641_)"/><path d="m270.022 357.165c-20.018-14.363-50.08-23.475-83.672-23.438-42.408.043-79.153 14.652-97.174 35.942-3.876-6.559-8.635-12.75-14.268-18.383l-.861-.861-.014-15.035c-.022-23.388 18.918-42.364 42.299-42.386l111.284-.108c23.381-.022 42.364 18.911 42.386 42.292z" fill="url(#SVGID_00000127012663050126239370000008806625638102393992_)"/><path d="m189.925 466.094c8.451-6.869 13.849-17.347 13.837-29.089-.025-23.744-9.672-45.228-25.243-60.774-15.571-15.539-37.075-25.142-60.819-25.117h-.007c-4.807.005-10.723 2.051-16.06 4.485-9.301 4.24-20.269 2.159-27.505-5.062l-16.573-16.539c-14.336-14.307-37.564-14.283-51.871.054-3.795 3.803-5.69 8.786-5.684 13.759.005 4.981 1.91 9.959 5.713 13.755l86.533 86.355c.045.052.09.097.135.149.022.03.045.06.067.082 7.45 8.645 11.5 19.702 11.512 31.114l.012 11.382c.005 4.554 3.292 8.245 7.337 8.241l78.615-.115v-32.68z" fill="url(#SVGID_00000161600074439859323520000007533112910748117661_)"/><path d="m266.674 421.119h-164.844c-.407 8.34-1.929 16.635-4.587 24.638-1.191 3.587-.804 7.477.99 10.804 3.737 6.927 5.716 14.728 5.727 22.704l.014 11.384c0 4.554 3.29 8.246 7.333 8.238l18.624-.027v.006l114.425-.115c4.051-.007 7.319-3.706 7.312-8.26l-.021-26.805c-.014-8.892 2.442-17.626 7.118-25.182 3.33-5.383 5.998-11.218 7.909-17.385z" fill="url(#SVGID_00000094580830022497855310000002347414123886589609_)"/></g><path d="m270.071 398.584-.072-63.393c-.021-23.386-19.005-42.32-42.384-42.298l-15.461.016-48.915 48.915 95.957 95.957c6.906-11.445 10.889-24.853 10.875-39.197z" fill="url(#SVGID_00000036944600446476396780000008640546198654549416_)"/><g><path d="m342.165 153.143c-.012-11.723 9.516-21.271 21.239-21.283 11.734 0 21.272 9.528 21.284 21.239l.147 142.39-42.522.044z" fill="url(#SVGID_00000053531643103375037970000010736475463813108613_)"/><path d="m334.657 296.663-7.084-123.027c-.665-11.544-10.232-20.588-21.781-20.588-.425 0-.851.013-1.281.037-12.024.692-21.242 11.037-20.551 23.061l7.084 123.027z" fill="url(#SVGID_00000088130172345651235390000001172297737315936912_)"/><path d="m399.147 179.061-10.393 115.759 6.843.614c24.08 2.162 41.849 23.437 39.687 47.516l14.308-159.361c1.25-13.928-9.026-26.24-22.954-27.491-13.935-1.249-26.24 9.036-27.491 22.963z" fill="url(#SVGID_00000127004270313580632200000000775742170339551378_)"/><path d="m399.147 179.061-10.393 115.759 6.843.614c24.08 2.162 41.849 23.437 39.687 47.516l14.308-159.361c1.25-13.928-9.026-26.24-22.954-27.491-13.935-1.249-26.24 9.036-27.491 22.963z" fill="url(#SVGID_00000066486895078175336750000006805890857704641214_)"/><path d="m222.564 203.915 21.183 141.708c-3.574-23.911 12.913-46.194 36.824-49.768l6.795-1.016-14.711-98.412c-2.068-13.837-14.956-23.373-28.794-21.305-13.829 2.067-23.365 14.955-21.297 28.793z" fill="url(#SVGID_00000160169424039328665280000011028148534657762991_)"/><path d="m251.235 438.504c4.676 7.556 7.132 16.29 7.118 25.182l-.021 26.805c-.007 4.554 3.261 8.253 7.312 8.26l114.425.115.007-9.201c.029-24.22 9.668-47.434 26.812-64.535l1.429-1.429c-1.99-25.951 6.938-52.576 26.777-72.415l.862-.862.014-15.033c.022-23.386-18.919-42.363-42.298-42.384l-111.286-.115c-23.379-.022-42.363 18.912-42.384 42.298l-.072 63.393c-.015 14.646 4.129 28.322 11.305 39.921z" fill="url(#SVGID_00000075882148547832176130000014282788126645069731_)"/><path d="m239.978 357.165c20.018-14.363 50.08-23.475 83.672-23.438 42.408.043 79.152 14.652 97.174 35.942 3.876-6.559 8.635-12.75 14.268-18.383l.861-.861.014-15.035c.022-23.388-18.918-42.364-42.299-42.386l-111.284-.108c-23.381-.022-42.364 18.911-42.386 42.292z" fill="url(#SVGID_00000141433706575372461210000016014279397416746660_)"/><path d="m320.075 466.094c-8.451-6.869-13.849-17.347-13.837-29.089.025-23.744 9.672-45.228 25.243-60.774 15.571-15.539 37.075-25.142 60.819-25.117h.007c4.807.005 10.723 2.051 16.06 4.485 9.301 4.24 20.269 2.159 27.505-5.062l16.573-16.539c14.336-14.307 37.564-14.283 51.871.054 3.795 3.803 5.69 8.786 5.685 13.759-.005 4.981-1.91 9.959-5.713 13.755l-86.533 86.355c-.045.052-.09.097-.135.149-.022.03-.045.06-.067.082-7.45 8.645-11.5 19.702-11.512 31.114l-.012 11.382c-.005 4.554-3.292 8.245-7.337 8.241l-78.615-.115v-32.68z" fill="url(#SVGID_00000006706813684635523070000011966825460997047942_)"/><path d="m243.326 421.119h164.844c.407 8.34 1.929 16.635 4.587 24.638 1.191 3.587.804 7.477-.99 10.804-3.737 6.927-5.716 14.728-5.727 22.704l-.014 11.384c0 4.554-3.29 8.246-7.333 8.238l-18.624-.027v.006l-114.425-.115c-4.051-.007-7.319-3.706-7.312-8.26l.021-26.805c.014-8.892-2.442-17.626-7.118-25.182-3.33-5.383-5.998-11.218-7.909-17.385z" fill="url(#SVGID_00000073713093527368456110000003398565527711613345_)"/></g></g><path d="m452.445 333.998-16.573 16.539c-.119.119-.248.225-.37.342l.453-.453.014-15.033c.022-23.386-18.919-42.363-42.298-42.384l-111.286-.115c-23.379-.022-42.363 18.912-42.384 42.298l-.072 63.393c-.008 8.27 1.311 16.229 3.752 23.681l76.542 76.542 59.845.06v-.006l18.623.027c4.046.004 7.333-3.687 7.337-8.241l.012-11.382c.012-11.412 4.062-22.469 11.512-31.114.023-.022.045-.052.067-.082.045-.052.09-.097.135-.149l86.533-86.355c3.803-3.795 5.708-8.774 5.713-13.755.005-4.973-1.889-9.956-5.685-13.759-14.306-14.337-37.534-14.361-51.87-.054z" fill="url(#SVGID_00000182524388669716186960000009029398051452486827_)"/><g><path d="m255 391.708c-5.784 0-11.577-1.288-16.753-3.724-15.643-7.362-46.191-23.148-75.008-46.161-37.487-29.937-59.706-62.071-66.041-95.509-4.921-25.975 2.105-52.492 19.275-72.752 15.902-18.762 38.436-29.727 63.45-30.873 1.471-.067 2.961-.102 4.429-.102 23.436 0 45.561 8.493 62.298 23.916 3.023 2.786 5.81 5.742 8.349 8.845 2.54-3.103 5.327-6.059 8.35-8.845 16.736-15.422 38.862-23.915 62.299-23.915 1.467 0 2.958.034 4.428.102 25.015 1.147 47.549 12.111 63.451 30.875 17.17 20.259 24.195 46.776 19.273 72.751-6.334 33.437-28.554 65.571-66.04 95.508-28.815 23.012-59.363 38.799-75.008 46.161-5.175 2.436-10.968 3.723-16.752 3.723z" fill="url(#SVGID_00000098914123831556410400000008795365324644885424_)"/><path d="m246.65 166.504c-16.737-15.422-38.862-23.916-62.298-23.916-1.467 0-2.958.034-4.428.102-25.015 1.147-47.548 12.111-63.45 30.873-17.17 20.26-24.196 46.776-19.275 72.752 3.496 18.451 11.838 36.503 24.903 54.01l132.899-124.976c-2.541-3.103-5.328-6.059-8.351-8.845z" fill="url(#SVGID_00000170246323089428441150000001011859574260131993_)"/></g><g><path d="m275.25 215.142-72.25 72 90.023 90.023c15.613-8.52 35.038-20.407 53.739-35.342 10.84-8.657 20.395-17.499 28.667-26.502z" fill="url(#SVGID_00000098181691386897700180000009111078466697808314_)"/><path d="m300.906 244.537h-18.61c-2.587 0-4.685-2.097-4.685-4.685v-18.61c0-5.244-4.251-9.496-9.496-9.496h-26.231c-5.244 0-9.496 4.251-9.496 9.496v18.61c0 2.587-2.097 4.685-4.685 4.685h-18.61c-5.244 0-9.496 4.251-9.496 9.496v26.232c0 5.244 4.251 9.496 9.496 9.496h18.61c2.587 0 4.685 2.097 4.685 4.685v18.61c0 5.244 4.251 9.496 9.496 9.496h26.231c5.244 0 9.496-4.251 9.496-9.496v-18.61c0-2.587 2.097-4.685 4.685-4.685h18.61c5.244 0 9.496-4.251 9.496-9.496v-26.232c0-5.245-4.252-9.496-9.496-9.496z" fill="url(#SVGID_00000039126770033266994750000009564468406887407291_)"/></g></g><g><path d="m255 11.112c-4.134 0-7.485 3.351-7.485 7.485v10.555c0 4.134 3.351 7.485 7.485 7.485s7.485-3.351 7.485-7.485v-10.555c0-4.134-3.351-7.485-7.485-7.485z" fill="url(#SVGID_00000155854938232187528550000015307020169559457932_)"/><path d="m502.515 258.626h-10.555c-4.134 0-7.485 3.351-7.485 7.485s3.351 7.485 7.485 7.485h10.555c4.134 0 7.485-3.351 7.485-7.485s-3.351-7.485-7.485-7.485z" fill="url(#SVGID_00000000187395208770436960000003350067939333526449_)"/><path d="m25.526 266.112c0-4.134-3.351-7.485-7.485-7.485h-10.556c-4.134 0-7.485 3.351-7.485 7.485s3.351 7.485 7.485 7.485h10.555c4.135 0 7.486-3.351 7.486-7.485z" fill="url(#SVGID_00000049180992037677507470000004628718913753115271_)"/><path d="m424.726 85.8-7.464 7.464c-2.924 2.924-2.924 7.662 0 10.586 2.923 2.924 7.662 2.924 10.586 0l7.464-7.464c2.923-2.924 2.923-7.662 0-10.586s-7.662-2.924-10.586 0z" fill="url(#SVGID_00000072253794783494726360000007624295119658198190_)"/><path d="m85.274 85.8c-2.923-2.923-7.662-2.923-10.586 0s-2.923 7.662 0 10.586l7.464 7.464c2.923 2.924 7.662 2.924 10.586 0 2.924-2.923 2.924-7.662 0-10.586z" fill="url(#SVGID_00000078029219232633008840000002719718289668647325_)"/><path d="m351.308 49.477 3.981-9.776c1.559-3.829-.28-8.196-4.109-9.756-3.829-1.559-8.196.28-9.756 4.109l-3.981 9.776c-1.559 3.829.28 8.196 4.109 9.756 3.83 1.56 8.197-.28 9.756-4.109z" fill="url(#SVGID_00000143602152023098285810000016208065350156806031_)"/><path d="m22.943 179.687 9.776 3.981c3.829 1.559 8.196-.28 9.756-4.109 1.559-3.829-.28-8.196-4.109-9.756l-9.776-3.981c-3.829-1.559-8.196.28-9.756 4.109-1.559 3.83.28 8.197 4.109 9.756z" fill="url(#SVGID_00000181085968720908471320000006418934050652720523_)"/><path d="m476.284 181.028 9.728-4.097c3.81-1.605 5.598-5.994 3.993-9.804s-5.994-5.598-9.804-3.993l-9.728 4.097c-3.81 1.605-5.598 5.994-3.993 9.804 1.605 3.811 5.993 5.598 9.804 3.993z" fill="url(#SVGID_00000005962546475291860080000016539381147373919630_)"/><path d="m165.924 54.632c3.81-1.605 5.598-5.994 3.993-9.804l-4.097-9.728c-1.605-3.81-5.994-5.598-9.804-3.993s-5.598 5.994-3.993 9.804l4.097 9.728c1.605 3.81 5.994 5.598 9.804 3.993z" fill="url(#SVGID_00000026164151575132864390000013757804576502627732_)"/></g></g></svg>