<svg id="_45_Prescription" enable-background="new 0 0 512 512" viewBox="0 0 512 512" xmlns="http://www.w3.org/2000/svg" xmlns:xlink="http://www.w3.org/1999/xlink"><linearGradient id="lg1"><stop offset="0" stop-color="#f5fbff"/><stop offset=".2414" stop-color="#f0f8fe"/><stop offset=".4916" stop-color="#e4f2fe"/><stop offset=".7457" stop-color="#cfe8fe"/><stop offset="1" stop-color="#b3dafe"/></linearGradient><linearGradient id="SVGID_1_" gradientTransform="matrix(1 0 0 -1 0 514)" gradientUnits="userSpaceOnUse" x1="329.147" x2="508.519" xlink:href="#lg1" y1="451.787" y2="385.444"/><linearGradient id="lg2"><stop offset="0" stop-color="#8ac9fe" stop-opacity="0"/><stop offset=".1291" stop-color="#89c8fd" stop-opacity=".019"/><stop offset=".2629" stop-color="#88c6fb" stop-opacity=".075"/><stop offset=".3989" stop-color="#87c4f8" stop-opacity=".168"/><stop offset=".5365" stop-color="#85c0f4" stop-opacity=".298"/><stop offset=".6753" stop-color="#83bbef" stop-opacity=".466"/><stop offset=".8151" stop-color="#7fb5e9" stop-opacity=".672"/><stop offset=".9532" stop-color="#7caee1" stop-opacity=".911"/><stop offset="1" stop-color="#7bacdf"/></linearGradient><linearGradient id="SVGID_00000018935825397689983900000009171131907423116460_" gradientTransform="matrix(1 0 0 -1 0 514)" gradientUnits="userSpaceOnUse" x1="503.298" x2="395.522" xlink:href="#lg2" y1="426.795" y2="426.795"/><linearGradient id="SVGID_00000119084641842999040260000000150000862570759582_" gradientTransform="matrix(1 0 0 -1 0 514)" gradientUnits="userSpaceOnUse" x1="437.586" x2="372.714" xlink:href="#lg2" y1="392.871" y2="456.644"/><linearGradient id="SVGID_00000000938322522118646130000008231889177859324577_" gradientTransform="matrix(1 0 0 -1 0 514)" gradientUnits="userSpaceOnUse" x1="483.507" x2="515.469" xlink:href="#lg2" y1="426.795" y2="426.795"/><linearGradient id="SVGID_00000109723086087494460230000015837000134176345479_" gradientTransform="matrix(1 0 0 -1 0 514)" gradientUnits="userSpaceOnUse" x1="419.451" x2="419.451" xlink:href="#lg2" y1="383.792" y2="334.301"/><linearGradient id="SVGID_00000080927021936501915860000000519290845473190545_" gradientTransform="matrix(1 0 0 -1 0 514)" gradientUnits="userSpaceOnUse" x1="112.036" x2="484.777" xlink:href="#lg1" y1="381.981" y2="124.691"/><linearGradient id="SVGID_00000003811276347327671420000009060176553960213149_" gradientUnits="userSpaceOnUse" x1="326.416" x2="471.41" xlink:href="#lg2" y1="256" y2="256"/><linearGradient id="SVGID_00000042734982917719677140000012981918303847609477_" gradientTransform="matrix(1 0 0 -1 0 514)" gradientUnits="userSpaceOnUse" x1="258.206" x2="258.206" xlink:href="#lg2" y1="47.335" y2="-.149"/><linearGradient id="SVGID_00000049906560199361111170000007050038385542748842_" gradientTransform="matrix(1 0 0 -1 0 514)" gradientUnits="userSpaceOnUse" x1="258.041" x2="217.17" xlink:href="#lg2" y1="50.335" y2="136.83"/><linearGradient id="SVGID_00000054977009905089681210000009569800246762381967_" gradientTransform="matrix(1 0 0 -1 0 514)" gradientUnits="userSpaceOnUse" x1="301.432" x2="374.001" xlink:href="#lg1" y1="106.058" y2="33.489"/><linearGradient id="SVGID_00000140013781111889392910000005032714523068710026_" gradientTransform="matrix(1 0 0 -1 0 514)" gradientUnits="userSpaceOnUse" x1="220.902" x2="220.902" xlink:href="#lg2" y1="403.118" y2="268.973"/><linearGradient id="SVGID_00000045619421062279868920000009505405044805257378_" gradientTransform="matrix(1 0 0 -1 0 514)" gradientUnits="userSpaceOnUse" x1="351.661" x2="351.661" xlink:href="#lg2" y1="403.118" y2="268.973"/><linearGradient id="SVGID_00000155860957730895161800000016295360661228033409_" gradientTransform="matrix(1 0 0 -1 0 514)" gradientUnits="userSpaceOnUse" x1="220.902" x2="220.902" xlink:href="#lg2" y1="357.631" y2="223.487"/><linearGradient id="SVGID_00000067956879635786019620000012252234387140191399_" gradientTransform="matrix(1 0 0 -1 0 514)" gradientUnits="userSpaceOnUse" x1="351.661" x2="351.661" xlink:href="#lg2" y1="357.631" y2="223.487"/><linearGradient id="SVGID_00000039833945842908957040000011863057805205796529_" gradientTransform="matrix(1 0 0 -1 0 514)" gradientUnits="userSpaceOnUse" x1="220.902" x2="220.902" xlink:href="#lg2" y1="312.145" y2="178.001"/><linearGradient id="SVGID_00000132775574395184047390000014529157712293925762_" gradientTransform="matrix(1 0 0 -1 0 514)" gradientUnits="userSpaceOnUse" x1="351.661" x2="351.661" xlink:href="#lg2" y1="312.145" y2="178.001"/><linearGradient id="SVGID_00000097464462525143616620000007008235643811500209_" gradientTransform="matrix(1 0 0 -1 0 514)" gradientUnits="userSpaceOnUse" x1="220.902" x2="220.902" xlink:href="#lg2" y1="266.659" y2="132.514"/><linearGradient id="SVGID_00000117638788931297351820000018435827893422931331_" gradientTransform="matrix(1 0 0 -1 0 514)" gradientUnits="userSpaceOnUse" x1="351.661" x2="351.661" xlink:href="#lg2" y1="266.659" y2="132.514"/><linearGradient id="SVGID_00000036219052720254380740000006999617515419597704_" gradientTransform="matrix(1 0 0 -1 0 514)" gradientUnits="userSpaceOnUse" x1="220.902" x2="220.902" xlink:href="#lg2" y1="221.173" y2="87.028"/><linearGradient id="SVGID_00000091727531406086959550000016739394331696766626_" gradientTransform="matrix(1 0 0 -1 0 514)" gradientUnits="userSpaceOnUse" x1="351.661" x2="351.661" xlink:href="#lg2" y1="221.173" y2="87.028"/><linearGradient id="SVGID_00000161589607940888254010000011751347051026084001_" gradientTransform="matrix(1 0 0 -1 0 514)" gradientUnits="userSpaceOnUse" x1="220.902" x2="220.902" xlink:href="#lg2" y1="175.687" y2="41.542"/><linearGradient id="SVGID_00000145766296640355657520000005320897869905827230_" gradientTransform="matrix(1 0 0 -1 0 514)" gradientUnits="userSpaceOnUse" x1="351.661" x2="351.661" xlink:href="#lg2" y1="175.687" y2="41.542"/><linearGradient id="SVGID_00000181802257371074174670000007677946733488351155_" gradientTransform="matrix(1 0 0 -1 0 514)" gradientUnits="userSpaceOnUse" x1="274.378" x2="233.286" xlink:href="#lg2" y1="418.627" y2="459.72"/><linearGradient id="SVGID_00000051375570859439594540000007578133636638776458_" gradientTransform="matrix(1 0 0 -1 0 514)" gradientUnits="userSpaceOnUse" x1="309.917" x2="268.77" xlink:href="#lg2" y1="383.091" y2="424.238"/><linearGradient id="SVGID_00000069395401274719989340000008522803921168395698_" gradientTransform="matrix(1 0 0 -1 0 514)" gradientUnits="userSpaceOnUse" x1="219.655" x2="289.446" y1="473.351" y2="403.56"><stop offset="0" stop-color="#fe646f"/><stop offset=".236" stop-color="#fc5f6b"/><stop offset=".4805" stop-color="#f7535f"/><stop offset=".7289" stop-color="#ef3e4b"/><stop offset=".9785" stop-color="#e5212f"/><stop offset="1" stop-color="#e41f2d"/></linearGradient><linearGradient id="SVGID_00000119116311249093892070000001306785944177391032_" gradientTransform="matrix(1 0 0 -1 0 514)" gradientUnits="userSpaceOnUse" x1="190.73" x2="129.423" xlink:href="#lg2" y1="130.633" y2="194.316"/><linearGradient id="lg3"><stop offset="0" stop-color="#99e6fc"/><stop offset=".1814" stop-color="#94e3fc"/><stop offset=".3695" stop-color="#88dcfc"/><stop offset=".5605" stop-color="#73d1fc"/><stop offset=".7537" stop-color="#56c1fd"/><stop offset=".9467" stop-color="#31acfd"/><stop offset="1" stop-color="#26a6fe"/></linearGradient><linearGradient id="SVGID_00000010309759609827388620000005575132854326427558_" gradientTransform="matrix(.707 -.707 -.707 -.707 2822.276 -1053.551)" gradientUnits="userSpaceOnUse" x1="-2889.585" x2="-2889.585" xlink:href="#lg3" y1="997.635" y2="937.251"/><linearGradient id="SVGID_00000089560875808850438380000012616253406512992702_" gradientTransform="matrix(1 0 0 -1 0 514)" gradientUnits="userSpaceOnUse" x1="68.791" x2="109.463" y1="182.591" y2="223.263"><stop offset="0" stop-color="#0172fb" stop-opacity="0"/><stop offset=".1214" stop-color="#0172fb" stop-opacity=".017"/><stop offset=".2474" stop-color="#0172fb" stop-opacity=".066"/><stop offset=".3754" stop-color="#0172fb" stop-opacity=".149"/><stop offset=".5049" stop-color="#0172fb" stop-opacity=".265"/><stop offset=".6355" stop-color="#0172fb" stop-opacity=".414"/><stop offset=".7672" stop-color="#0172fb" stop-opacity=".598"/><stop offset=".897" stop-color="#0172fb" stop-opacity=".81"/><stop offset="1" stop-color="#0172fb"/></linearGradient><linearGradient id="lg4"><stop offset="0" stop-color="#fef48b"/><stop offset=".1646" stop-color="#fdf286"/><stop offset=".3352" stop-color="#fdee7a"/><stop offset=".5086" stop-color="#fce765"/><stop offset=".6839" stop-color="#fcde48"/><stop offset=".8589" stop-color="#fbd123"/><stop offset="1" stop-color="#fac600"/></linearGradient><linearGradient id="SVGID_00000146495998677563182980000007656977708671514013_" gradientTransform="matrix(.707 -.707 -.707 -.707 2822.275 -1053.551)" gradientUnits="userSpaceOnUse" x1="-2966.715" x2="-2966.715" xlink:href="#lg4" y1="989.586" y2="941.532"/><linearGradient id="SVGID_00000133498825005318918260000015751148588407006605_" gradientTransform="matrix(.707 .707 .707 -.707 -3177.92 -372.875)" gradientUnits="userSpaceOnUse" x1="2828.518" x2="2828.518" xlink:href="#lg3" y1="1911.625" y2="1851.242"/><linearGradient id="SVGID_00000096756745361709696490000015745602550919831197_" gradientTransform="matrix(.707 .707 .707 -.707 -3177.92 -372.875)" gradientUnits="userSpaceOnUse" x1="2751.388" x2="2751.388" xlink:href="#lg4" y1="1903.577" y2="1855.523"/><linearGradient id="SVGID_00000100344628688235356250000009956035886655868297_" gradientTransform="matrix(.707 -.707 -.707 -.707 -1832.838 2114.555)" gradientUnits="userSpaceOnUse" x1="2725.798" x2="2725.798" xlink:href="#lg3" y1="-215.773" y2="-276.156"/><linearGradient id="SVGID_00000128461338859727164760000014130988611216681358_" gradientTransform="matrix(.707 -.707 -.707 -.707 -1832.837 2114.555)" gradientUnits="userSpaceOnUse" x1="2648.668" x2="2648.668" xlink:href="#lg4" y1="-223.821" y2="-271.875"/><linearGradient id="SVGID_00000016765009977239790360000010978559659276413878_" gradientTransform="matrix(1 0 0 -1 0 514)" gradientUnits="userSpaceOnUse" x1="212.08" x2="181.308" y1="88.632" y2="119.403"><stop offset="0" stop-color="#fe9738" stop-opacity="0"/><stop offset=".1207" stop-color="#fe9738" stop-opacity=".016"/><stop offset=".2459" stop-color="#fe9738" stop-opacity=".065"/><stop offset=".3731" stop-color="#fe9738" stop-opacity=".147"/><stop offset=".5018" stop-color="#fe9738" stop-opacity=".262"/><stop offset=".6317" stop-color="#fe9738" stop-opacity=".41"/><stop offset=".7625" stop-color="#fe9738" stop-opacity=".59"/><stop offset=".8916" stop-color="#fe9738" stop-opacity=".8"/><stop offset="1" stop-color="#fe9738"/></linearGradient><linearGradient id="SVGID_00000050654612137163834070000016736818893405158539_" gradientTransform="matrix(1 0 0 -1 -2947.618 1119.21)" gradientUnits="userSpaceOnUse" x1="3117.91" x2="3117.91" xlink:href="#lg3" y1="749.325" y2="688.941"/><linearGradient id="SVGID_00000165216463499416624510000001251398345034796939_" gradientTransform="matrix(1 0 0 -1 -2947.618 1119.21)" gradientUnits="userSpaceOnUse" x1="3040.779" x2="3040.779" xlink:href="#lg4" y1="741.276" y2="693.222"/><g><g><g><path d="m512 152.2v-96.8c0-30.6-24.8-55.4-55.4-55.4-71.6 0-129.7 58.1-129.7 129.7v44.7h162.9c12.2 0 22.2-9.9 22.2-22.2z" fill="url(#SVGID_1_)"/><path d="m512 152.2v-96.8c0-30.6-24.8-55.4-55.4-55.4-71.6 0-129.7 58.1-129.7 129.7v44.7h162.9c12.2 0 22.2-9.9 22.2-22.2z" fill="url(#SVGID_00000018935825397689983900000009171131907423116460_)"/><path d="m512 152.2v-96.8c0-30.6-24.8-55.4-55.4-55.4-71.6 0-129.7 58.1-129.7 129.7v44.7h162.9c12.2 0 22.2-9.9 22.2-22.2z" fill="url(#SVGID_00000119084641842999040260000000150000862570759582_)"/><path d="m512 152.2v-96.8c0-30.6-24.8-55.4-55.4-55.4-71.6 0-129.7 58.1-129.7 129.7v44.7h162.9c12.2 0 22.2-9.9 22.2-22.2z" fill="url(#SVGID_00000000938322522118646130000008231889177859324577_)"/><path d="m512 152.2v-96.8c0-30.6-24.8-55.4-55.4-55.4-71.6 0-129.7 58.1-129.7 129.7v44.7h162.9c12.2 0 22.2-9.9 22.2-22.2z" fill="url(#SVGID_00000109723086087494460230000015837000134176345479_)"/><g><path d="m405.5 417.8c0 5.9-2.4 11.6-6.6 15.8l-71.9 71.9c-3.8 3.8-8.7 6.1-14 6.5h-185.4c-9.2 0-16.7-7.5-16.7-16.7v-439.9c0-30.6 24.8-55.4 55.4-55.4h294.6c-30.6 0-55.4 24.8-55.4 55.4z" fill="url(#SVGID_00000080927021936501915860000000519290845473190545_)"/><path d="m235.9 0h225c-30.6 0-55.4 24.8-55.4 55.4v362.3c0 5.9-2.4 11.6-6.6 15.8l-71.9 72c-3.8 3.8-8.7 6.1-14 6.5h-77z" fill="url(#SVGID_00000003811276347327671420000009060176553960213149_)"/><path d="m110.9 357.6v137.8c0 9.2 7.5 16.7 16.7 16.7h185.4c5.3-.4 10.2-2.7 14-6.5l71.9-71.9c4.2-4.2 6.6-9.9 6.6-15.8v-60.2h-294.6z" fill="url(#SVGID_00000042734982917719677140000012981918303847609477_)"/><path d="m303.7 325.5-71.1 71.1h-121.7v98.8c0 9.2 7.5 16.7 16.7 16.7h185.4c5.3-.4 10.2-2.7 14-6.5l71.9-71.9c2.2-2.2 3.9-4.9 5.1-7.8z" fill="url(#SVGID_00000049906560199361111170000007050038385542748842_)"/><path d="m395.1 428.1h-56.9c-9.2 0-16.7 7.5-16.7 16.7v56.9c0 5.7-4.6 10.4-10.4 10.4 52.1 0 94.3-42.2 94.3-94.3.1 5.6-4.6 10.3-10.3 10.3z" fill="url(#SVGID_00000054977009905089681210000009569800246762381967_)"/></g></g><g><g><path d="m148.5 174.4h144.8c4.9 0 8.9 4 8.9 8.9 0 4.9-4 8.9-8.9 8.9h-144.8c-4.9 0-8.9-4-8.9-8.9-.1-4.9 4-8.9 8.9-8.9z" fill="url(#SVGID_00000140013781111889392910000005032714523068710026_)"/><path d="m335.4 174.4h32.5c4.9 0 8.9 4 8.9 8.9 0 4.9-4 8.9-8.9 8.9h-32.5c-4.9 0-8.9-4-8.9-8.9 0-4.9 4-8.9 8.9-8.9z" fill="url(#SVGID_00000045619421062279868920000009505405044805257378_)"/></g><g><path d="m148.5 219.9h144.8c4.9 0 8.9 4 8.9 8.9 0 4.9-4 8.9-8.9 8.9h-144.8c-4.9 0-8.9-4-8.9-8.9-.1-4.9 4-8.9 8.9-8.9z" fill="url(#SVGID_00000155860957730895161800000016295360661228033409_)"/><path d="m335.4 219.9h32.5c4.9 0 8.9 4 8.9 8.9 0 4.9-4 8.9-8.9 8.9h-32.5c-4.9 0-8.9-4-8.9-8.9 0-4.9 4-8.9 8.9-8.9z" fill="url(#SVGID_00000067956879635786019620000012252234387140191399_)"/></g><g><path d="m148.5 265.4h144.8c4.9 0 8.9 4 8.9 8.9 0 4.9-4 8.9-8.9 8.9h-144.8c-4.9 0-8.9-4-8.9-8.9-.1-4.9 4-8.9 8.9-8.9z" fill="url(#SVGID_00000039833945842908957040000011863057805205796529_)"/><path d="m335.4 265.4h32.5c4.9 0 8.9 4 8.9 8.9 0 4.9-4 8.9-8.9 8.9h-32.5c-4.9 0-8.9-4-8.9-8.9 0-4.9 4-8.9 8.9-8.9z" fill="url(#SVGID_00000132775574395184047390000014529157712293925762_)"/></g><g><path d="m148.5 310.9h144.8c4.9 0 8.9 4 8.9 8.9 0 4.9-4 8.9-8.9 8.9h-144.8c-4.9 0-8.9-4-8.9-8.9-.1-4.9 4-8.9 8.9-8.9z" fill="url(#SVGID_00000097464462525143616620000007008235643811500209_)"/><path d="m335.4 310.9h32.5c4.9 0 8.9 4 8.9 8.9 0 4.9-4 8.9-8.9 8.9h-32.5c-4.9 0-8.9-4-8.9-8.9 0-4.9 4-8.9 8.9-8.9z" fill="url(#SVGID_00000117638788931297351820000018435827893422931331_)"/></g><g><path d="m148.5 356.4h144.8c4.9 0 8.9 4 8.9 8.9 0 4.9-4 8.9-8.9 8.9h-144.8c-4.9 0-8.9-4-8.9-8.9-.1-4.9 4-8.9 8.9-8.9z" fill="url(#SVGID_00000036219052720254380740000006999617515419597704_)"/><path d="m335.4 356.4h32.5c4.9 0 8.9 4 8.9 8.9 0 4.9-4 8.9-8.9 8.9h-32.5c-4.9 0-8.9-4-8.9-8.9 0-4.9 4-8.9 8.9-8.9z" fill="url(#SVGID_00000091727531406086959550000016739394331696766626_)"/></g><g><path d="m148.5 401.8h144.8c4.9 0 8.9 4 8.9 8.9 0 4.9-4 8.9-8.9 8.9h-144.8c-4.9 0-8.9-4-8.9-8.9-.1-4.9 4-8.9 8.9-8.9z" fill="url(#SVGID_00000161589607940888254010000011751347051026084001_)"/><path d="m335.4 401.8h32.5c4.9 0 8.9 4 8.9 8.9 0 4.9-4 8.9-8.9 8.9h-32.5c-4.9 0-8.9-4-8.9-8.9 0-4.9 4-8.9 8.9-8.9z" fill="url(#SVGID_00000145766296640355657520000005320897869905827230_)"/></g></g><g><path d="m209.5 93 64 64c31.5-6.2 56.3-31 62.4-62.4l-64-64-29.3 33.1z" fill="url(#SVGID_00000181802257371074174670000007677946733488351155_)"/><path d="m405.5 164.1-98.2-98.3h-.1l-33.4 29-29 33.4 160.7 160.7z" fill="url(#SVGID_00000051375570859439594540000007578133636638776458_)"/><path d="m302.2 63.6h-28.5v-28.4c0-3.8-3.1-6.9-6.9-6.9h-17.4c-3.8 0-6.9 3.1-6.9 6.9v28.5h-28.5c-3.8 0-6.9 3.1-6.9 6.9v17.4c0 3.8 3.1 6.9 6.9 6.9h28.5v28.5c0 3.8 3.1 6.9 6.9 6.9h17.4c3.8 0 6.9-3.1 6.9-6.9v-28.6h28.5c3.8 0 6.9-3.1 6.9-6.9v-17.4c0-3.8-3.1-6.9-6.9-6.9z" fill="url(#SVGID_00000069395401274719989340000008522803921168395698_)"/></g></g><path d="m110.9 282.5v119.2h116.7l39.8-39.9-79.3-79.3z" fill="url(#SVGID_00000119116311249093892070000001306785944177391032_)"/><g><g><g><path d="m95 354.8 35.2-35.2c13.7-13.7 13.7-35.8 0-49.5-13.7-13.7-35.8-13.7-49.5 0l-35.2 35.2 13.9 35.6z" fill="url(#SVGID_00000010309759609827388620000005575132854326427558_)"/><path d="m95 354.8 35.2-35.2c13.7-13.7 13.7-35.8 0-49.5-13.7-13.7-35.8-13.7-49.5 0l-35.2 35.2 13.9 35.6z" fill="url(#SVGID_00000089560875808850438380000012616253406512992702_)"/><path d="m10.3 340.4 35.2-35.2 49.5 49.6-35.2 35.2c-13.7 13.7-35.9 13.7-49.5 0-13.7-13.7-13.7-35.9 0-49.6z" fill="url(#SVGID_00000146495998677563182980000007656977708671514013_)"/></g><g><path d="m103.4 296.8 35.2 35.2c13.7 13.7 35.8 13.7 49.5 0 13.7-13.7 13.7-35.8 0-49.5l-35.2-35.2-35.6 13.9z" fill="url(#SVGID_00000133498825005318918260000015751148588407006605_)"/><path d="m117.7 212.1 35.2 35.2-49.5 49.5-35.2-35.2c-13.7-13.7-13.7-35.9 0-49.5 13.6-13.6 35.8-13.6 49.5 0z" fill="url(#SVGID_00000096756745361709696490000015745602550919831197_)"/></g></g><g><path d="m268.5 410.2 35.2-35.2c13.7-13.7 13.7-35.8 0-49.5-13.7-13.7-35.8-13.7-49.5 0l-35.2 35.2 13.9 35.6z" fill="url(#SVGID_00000100344628688235356250000009956035886655868297_)"/><path d="m183.8 395.9 35.2-35.2 49.5 49.5-35.2 35.2c-13.7 13.7-35.9 13.7-49.5 0-13.6-13.7-13.6-35.9 0-49.5z" fill="url(#SVGID_00000128461338859727164760000014130988611216681358_)"/><path d="m210.6 375.6h-6.5l-20.3 20.3c-13.7 13.7-13.7 35.8 0 49.5 13.7 13.7 35.8 13.7 49.5 0l23.5-23.5z" fill="url(#SVGID_00000016765009977239790360000010978559659276413878_)"/></g><g><path d="m135.5 434.8h49.8c19.3 0 35-15.7 35-35 0-19.3-15.7-35-35-35h-49.8l-15.3 35z" fill="url(#SVGID_00000050654612137163834070000016736818893405158539_)"/><path d="m85.8 364.8h49.8v70h-49.8c-19.3 0-35-15.7-35-35 0-19.3 15.7-35 35-35z" fill="url(#SVGID_00000165216463499416624510000001251398345034796939_)"/></g></g></g></svg>