<svg id="Capa_1" enable-background="new 0 0 512 512" height="512" viewBox="0 0 512 512" width="512" xmlns="http://www.w3.org/2000/svg" xmlns:xlink="http://www.w3.org/1999/xlink"><linearGradient id="SVGID_1_" gradientUnits="userSpaceOnUse" x1="113.603" x2="225.848" y1="199.646" y2="424.137"><stop offset="0" stop-color="#c9f6b0"/><stop offset="1" stop-color="#0bb494"/></linearGradient><linearGradient id="lg1"><stop offset="0" stop-color="#00a887" stop-opacity="0"/><stop offset=".3602" stop-color="#01a58c" stop-opacity=".36"/><stop offset=".7945" stop-color="#069c9a" stop-opacity=".795"/><stop offset="1" stop-color="#0996a4"/></linearGradient><linearGradient id="SVGID_00000139271509812787927920000014381616498387713979_" gradientUnits="userSpaceOnUse" x1="176.075" x2="176.075" xlink:href="#lg1" y1="388.351" y2="477.796"/><linearGradient id="SVGID_00000129189435022578878700000001581465372747379134_" gradientUnits="userSpaceOnUse" x1="284.469" x2="352.84" xlink:href="#lg1" y1="326.992" y2="326.992"/><linearGradient id="SVGID_00000064319364231096400230000013439354339438270366_" gradientUnits="userSpaceOnUse" x1="228.003" x2="231.451" xlink:href="#lg1" y1="452.261" y2="333.295"/><linearGradient id="SVGID_00000178914601634349893450000013141215366920938915_" gradientUnits="userSpaceOnUse" x1="232.281" x2="371.29" y1="44.074" y2="358.45"><stop offset="0" stop-color="#f5fbff"/><stop offset="1" stop-color="#d8ecfe"/></linearGradient><linearGradient id="lg2"><stop offset="0" stop-color="#b3dafe" stop-opacity="0"/><stop offset=".4315" stop-color="#b1d9fe" stop-opacity=".432"/><stop offset=".6657" stop-color="#a9d6fe" stop-opacity=".666"/><stop offset=".852" stop-color="#9bd0fe" stop-opacity=".852"/><stop offset="1" stop-color="#8ac9fe"/></linearGradient><linearGradient id="SVGID_00000088130525975069652270000017262493471783508390_" gradientUnits="userSpaceOnUse" x1="425.039" x2="510.637" xlink:href="#lg2" y1="206.39" y2="206.39"/><linearGradient id="SVGID_00000175311558554654283430000016996498102174471596_" gradientTransform="matrix(-1 0 0 1 2690.387 0)" gradientUnits="userSpaceOnUse" x1="2398.818" x2="2398.818" xlink:href="#lg2" y1="257.981" y2="369.958"/><linearGradient id="SVGID_00000088109352801746230690000000596152669346215060_" gradientUnits="userSpaceOnUse" x1="110.578" x2="295.568" xlink:href="#lg2" y1="106.985" y2="387.143"/><linearGradient id="lg3"><stop offset="0" stop-color="#5a5a5a"/><stop offset="1" stop-color="#444"/></linearGradient><linearGradient id="SVGID_00000173120380948332810720000001845703012499262397_" gradientUnits="userSpaceOnUse" x1="195.46" x2="350.62" xlink:href="#lg3" y1="70.44" y2="322.01"/><linearGradient id="SVGID_00000119839882857679119180000014486000835194338726_" gradientUnits="userSpaceOnUse" x1="96.65" x2="295.316" xlink:href="#lg3" y1="56.454" y2="378.563"/><linearGradient id="lg4"><stop offset="0" stop-color="#fef0ae"/><stop offset="1" stop-color="#fac600"/></linearGradient><linearGradient id="SVGID_00000016784407909277682520000001159029970496983227_" gradientUnits="userSpaceOnUse" x1="148.622" x2="209.166" xlink:href="#lg4" y1="101.431" y2="161.975"/><linearGradient id="lg5"><stop offset="0" stop-color="#fe9738" stop-opacity="0"/><stop offset="1" stop-color="#fe9738"/></linearGradient><linearGradient id="SVGID_00000023276579304403398070000014634045283629132475_" gradientUnits="userSpaceOnUse" x1="158.866" x2="167.708" xlink:href="#lg5" y1="125.14" y2="104.361"/><linearGradient id="SVGID_00000027568883612775033650000016965056542727359115_" gradientUnits="userSpaceOnUse" x1="173.325" x2="168.359" xlink:href="#lg5" y1="121.858" y2="106.336"/><linearGradient id="SVGID_00000054966024055135728460000015481311646356648596_" gradientUnits="userSpaceOnUse" x1="174.904" x2="156.072" xlink:href="#lg5" y1="111.46" y2="112.081"/><linearGradient id="SVGID_00000115491572024802911170000013760010668538077104_" gradientUnits="userSpaceOnUse" x1="202.441" x2="216.146" xlink:href="#lg5" y1="118.579" y2="123"/><linearGradient id="SVGID_00000117651291060094105450000008620052572066877074_" gradientUnits="userSpaceOnUse" x1="166.46" x2="166.46" xlink:href="#lg5" y1="146.347" y2="163.759"/><linearGradient id="SVGID_00000160168877760594912320000005281558584523667616_" gradientUnits="userSpaceOnUse" x1="187.127" x2="134.429" xlink:href="#lg4" y1="136.535" y2="83.837"/><linearGradient id="SVGID_00000128466709885338501120000010787958697331000215_" gradientUnits="userSpaceOnUse" x1="273.731" x2="334.275" xlink:href="#lg4" y1="101.431" y2="161.975"/><linearGradient id="SVGID_00000072996575772629137920000004794864325398284416_" gradientUnits="userSpaceOnUse" x1="283.975" x2="292.817" xlink:href="#lg5" y1="125.14" y2="104.361"/><linearGradient id="SVGID_00000020383889819469493600000000054525644856837545_" gradientUnits="userSpaceOnUse" x1="298.434" x2="293.467" xlink:href="#lg5" y1="121.858" y2="106.336"/><linearGradient id="SVGID_00000121983986464498949030000000377810911783855551_" gradientUnits="userSpaceOnUse" x1="300.013" x2="281.18" xlink:href="#lg5" y1="111.46" y2="112.081"/><linearGradient id="SVGID_00000100351072875394874490000001539812232014995376_" gradientUnits="userSpaceOnUse" x1="327.55" x2="341.255" xlink:href="#lg5" y1="118.579" y2="123"/><linearGradient id="SVGID_00000083792889704449673770000011701999224938296209_" gradientUnits="userSpaceOnUse" x1="291.569" x2="291.569" xlink:href="#lg5" y1="146.347" y2="163.759"/><linearGradient id="SVGID_00000037694807134203247360000013582897128712941501_" gradientUnits="userSpaceOnUse" x1="312.236" x2="259.538" xlink:href="#lg4" y1="136.535" y2="83.837"/><linearGradient id="SVGID_00000112634583980703449600000017543491823982264978_" gradientUnits="userSpaceOnUse" x1="398.84" x2="459.384" xlink:href="#lg4" y1="101.431" y2="161.975"/><linearGradient id="SVGID_00000059311600229818057520000018229841156503872135_" gradientUnits="userSpaceOnUse" x1="409.084" x2="417.925" xlink:href="#lg5" y1="125.14" y2="104.361"/><linearGradient id="SVGID_00000091718528551445675440000009276477974196946587_" gradientUnits="userSpaceOnUse" x1="423.543" x2="418.576" xlink:href="#lg5" y1="121.858" y2="106.336"/><linearGradient id="SVGID_00000026881384706385628490000015916336633320910264_" gradientUnits="userSpaceOnUse" x1="425.122" x2="406.289" xlink:href="#lg5" y1="111.46" y2="112.081"/><linearGradient id="SVGID_00000079477365232849349140000007115688135480215955_" gradientUnits="userSpaceOnUse" x1="452.659" x2="466.364" xlink:href="#lg5" y1="118.579" y2="123"/><linearGradient id="SVGID_00000085969772924559765900000003546354930162116993_" gradientUnits="userSpaceOnUse" x1="416.678" x2="416.678" xlink:href="#lg5" y1="146.347" y2="163.759"/><linearGradient id="SVGID_00000159468363602908366100000012506699272598086051_" gradientUnits="userSpaceOnUse" x1="437.345" x2="384.647" xlink:href="#lg4" y1="136.535" y2="83.837"/><g><g><path d="m105.05 182.283h142.049c58.017 0 105.05 47.032 105.05 105.05v74.515c0 58.017-47.032 105.05-105.05 105.05h-81.531c-1.447 0-2.753.798-3.48 2.05-11.738 20.217-36.17 34.623-68.259 42.915-3.968 1.025-6.631-3.915-3.667-6.744 11.987-11.443 17.875-22.749 18.864-33.821.211-2.356-1.611-4.4-3.977-4.4-58.017-.001-105.049-47.033-105.049-105.051v-74.514c0-58.018 47.032-105.05 105.05-105.05z" fill="url(#SVGID_1_)"/><path d="m0 289.057v72.79c0 58.017 47.032 105.05 105.05 105.05 2.366 0 4.187 2.044 3.977 4.4-.989 11.071-6.877 22.378-18.864 33.821-2.964 2.83-.301 7.77 3.667 6.744 32.088-8.293 56.521-22.698 68.259-42.915.726-1.251 2.033-2.05 3.48-2.05h81.531c58.017 0 105.05-47.032 105.05-105.05v-72.79z" fill="url(#SVGID_00000139271509812787927920000014381616498387713979_)"/><path d="m247.099 182.283h-86.748v289.418c.596-.91 1.195-1.819 1.737-2.754.726-1.251 2.033-2.05 3.48-2.05h81.531c58.017 0 105.05-47.032 105.05-105.05v-74.515c0-58.017-47.032-105.049-105.05-105.049z" fill="url(#SVGID_00000129189435022578878700000001581465372747379134_)"/></g><path d="m110.307 318.584 147.746 147.746c52.869-5.478 94.096-50.165 94.096-104.483v-43.263z" fill="url(#SVGID_00000064319364231096400230000013439354339438270366_)"/><g><path d="m380.486 0h-177.834c-72.633 0-131.514 58.881-131.514 131.514v93.286c0 72.633 58.881 131.514 131.514 131.514h102.071c1.811 0 3.447 1 4.356 2.566 14.694 25.311 45.282 43.345 85.454 53.727 4.967 1.284 8.302-4.901 4.591-8.443-15.007-14.326-22.378-28.48-23.617-42.341-.264-2.95 2.017-5.508 4.979-5.508 72.633-.001 131.514-58.882 131.514-131.515v-93.286c0-72.633-58.881-131.514-131.514-131.514z" fill="url(#SVGID_00000178914601634349893450000013141215366920938915_)"/><path d="m380.486 0h-117.982v356.314h42.218c1.811 0 3.447 1 4.356 2.566 14.694 25.311 45.282 43.345 85.454 53.726 4.967 1.284 8.302-4.901 4.591-8.443-15.007-14.326-22.378-28.48-23.617-42.341-.264-2.95 2.017-5.508 4.979-5.508 72.634 0 131.515-58.881 131.515-131.514v-93.286c0-72.633-58.881-131.514-131.514-131.514z" fill="url(#SVGID_00000088130525975069652270000017262493471783508390_)"/><path d="m512 133.673v91.127c0 72.633-58.881 131.514-131.514 131.514-2.962 0-5.242 2.559-4.979 5.509 1.239 13.861 8.61 28.015 23.617 42.341 3.711 3.543.376 9.727-4.591 8.443-40.172-10.382-70.76-28.416-85.454-53.727-.909-1.567-2.545-2.566-4.356-2.566h-102.071c-72.633 0-131.514-58.881-131.514-131.514v-91.127z" fill="url(#SVGID_00000175311558554654283430000016996498102174471596_)"/></g><path d="m352.149 287.333c0-58.017-47.032-105.05-105.05-105.05h-142.049c-11.867 0-23.273 1.97-33.912 5.597v36.92c0 72.633 58.881 131.514 131.514 131.514h102.071c1.811 0 3.447 1 4.356 2.566 8.141 14.023 21.168 25.807 37.992 35.299 3.292-10.186 5.078-21.05 5.078-32.332z" fill="url(#SVGID_00000088109352801746230690000000596152669346215060_)"/><g><path d="m441.272 218.767h-299.406c-4.143 0-7.5 3.358-7.5 7.5s3.357 7.5 7.5 7.5h299.406c4.143 0 7.5-3.358 7.5-7.5s-3.357-7.5-7.5-7.5z" fill="url(#SVGID_00000173120380948332810720000001845703012499262397_)"/><path d="m326.856 272.233h-184.99c-4.143 0-7.5 3.358-7.5 7.5s3.357 7.5 7.5 7.5h184.99c4.143 0 7.5-3.358 7.5-7.5s-3.357-7.5-7.5-7.5z" fill="url(#SVGID_00000119839882857679119180000014486000835194338726_)"/></g><g><path d="m169.333 157.475 23.004 7.202c6.151 1.926 12.419-2.627 12.488-9.073l.259-24.104c.021-1.96.641-3.867 1.775-5.464l13.958-19.653c3.732-5.255 1.339-12.623-4.77-14.68l-22.844-7.695c-1.857-.626-3.479-1.804-4.648-3.377l-14.378-19.348c-3.845-5.174-11.591-5.174-15.436 0l-14.376 19.347c-1.169 1.573-2.791 2.752-4.648 3.377l-22.844 7.695c-6.109 2.058-8.502 9.425-4.77 14.68l13.958 19.653c1.135 1.598 1.754 3.505 1.776 5.464l.259 24.104c.069 6.446 6.336 10.999 12.488 9.073l23.004-7.202c1.87-.585 3.875-.585 5.745.001z" fill="url(#SVGID_00000016784407909277682520000001159029970496983227_)"/><path d="m111.283 96.639c-1.444 3.007-1.326 6.723.819 9.743l13.958 19.653c1.135 1.598 1.754 3.505 1.776 5.464l.259 24.104c.069 6.446 6.336 10.999 12.488 9.073l23.004-7.202c1.87-.586 3.875-.586 5.746 0l23.004 7.202c6.151 1.926 12.419-2.627 12.488-9.073l.259-24.104c.01-.944.162-1.875.441-2.766z" fill="url(#SVGID_00000023276579304403398070000014634045283629132475_)"/><path d="m221.639 96.639c1.444 3.007 1.326 6.723-.819 9.743l-13.958 19.653c-1.135 1.598-1.754 3.505-1.776 5.464l-.259 24.104c-.069 6.446-6.336 10.999-12.488 9.073l-23.004-7.202c-1.87-.586-3.875-.586-5.746 0l-23.004 7.202c-6.151 1.926-12.419-2.627-12.488-9.073l-.259-24.104c-.01-.944-.162-1.875-.441-2.766z" fill="url(#SVGID_00000027568883612775033650000016965056542727359115_)"/><path d="m216.048 91.702-22.844-7.695c-1.857-.626-3.479-1.804-4.648-3.377l-14.378-19.348c-1.922-2.587-4.82-3.88-7.718-3.88v99.634c.969 0 1.938.146 2.873.439l23.004 7.202c6.151 1.926 12.419-2.627 12.488-9.073l.259-24.104c.021-1.96.641-3.866 1.775-5.464l13.958-19.653c3.734-5.256 1.34-12.623-4.769-14.681z" fill="url(#SVGID_00000054966024055135728460000015481311646356648596_)"/><path d="m216.048 91.702-22.844-7.695c-1.857-.626-3.479-1.804-4.648-3.377l-14.378-19.348c-1.922-2.587-4.82-3.88-7.718-3.88v99.634c.969 0 1.938.146 2.873.439l23.004 7.202c6.151 1.926 12.419-2.627 12.488-9.073l.259-24.104c.021-1.96.641-3.866 1.775-5.464l13.958-19.653c3.734-5.256 1.34-12.623-4.769-14.681z" fill="url(#SVGID_00000115491572024802911170000013760010668538077104_)"/><path d="m127.437 128.884c.249.845.389 1.724.398 2.615l.259 24.104c.069 6.446 6.336 10.999 12.488 9.073l23.004-7.202c1.87-.586 3.875-.586 5.746 0l23.004 7.202c6.151 1.926 12.419-2.627 12.488-9.073l.259-24.104c.01-.891.149-1.77.398-2.615z" fill="url(#SVGID_00000117651291060094105450000008620052572066877074_)"/><path d="m168.113 137.848 13.234 4.143c3.539 1.108 7.144-1.512 7.184-5.22l.149-13.867c.012-1.127.369-2.224 1.021-3.144l8.03-11.306c2.147-3.023.77-7.262-2.744-8.445l-13.142-4.427c-1.069-.36-2.002-1.038-2.674-1.943l-8.271-11.13c-2.212-2.976-6.668-2.976-8.88 0l-8.271 11.131c-.673.905-1.606 1.583-2.674 1.943l-13.142 4.427c-3.514 1.184-4.891 5.422-2.744 8.445l8.03 11.306c.653.919 1.009 2.016 1.021 3.144l.149 13.867c.04 3.708 3.645 6.327 7.184 5.22l13.234-4.143c1.077-.338 2.23-.338 3.306-.001z" fill="url(#SVGID_00000160168877760594912320000005281558584523667616_)"/></g><g><path d="m294.442 157.475 23.004 7.202c6.151 1.926 12.418-2.627 12.488-9.073l.259-24.104c.021-1.96.641-3.867 1.775-5.464l13.958-19.653c3.732-5.255 1.339-12.623-4.77-14.68l-22.844-7.695c-1.857-.626-3.479-1.804-4.648-3.377l-14.378-19.348c-3.845-5.174-11.591-5.174-15.436 0l-14.377 19.347c-1.169 1.573-2.791 2.752-4.648 3.377l-22.844 7.695c-6.109 2.058-8.502 9.425-4.77 14.68l13.958 19.653c1.135 1.598 1.754 3.505 1.776 5.464l.259 24.104c.069 6.446 6.336 10.999 12.488 9.073l23.004-7.202c1.871-.585 3.875-.585 5.746.001z" fill="url(#SVGID_00000128466709885338501120000010787958697331000215_)"/><path d="m236.392 96.639c-1.444 3.007-1.326 6.723.819 9.743l13.958 19.653c1.135 1.598 1.754 3.505 1.776 5.464l.259 24.104c.069 6.446 6.336 10.999 12.488 9.073l23.004-7.202c1.87-.586 3.875-.586 5.746 0l23.004 7.202c6.151 1.926 12.419-2.627 12.488-9.073l.259-24.104c.01-.944.162-1.875.441-2.766z" fill="url(#SVGID_00000072996575772629137920000004794864325398284416_)"/><path d="m346.748 96.639c1.444 3.007 1.326 6.723-.819 9.743l-13.958 19.653c-1.135 1.598-1.754 3.505-1.776 5.464l-.259 24.104c-.069 6.446-6.336 10.999-12.488 9.073l-23.004-7.202c-1.87-.586-3.875-.586-5.746 0l-23.004 7.202c-6.151 1.926-12.419-2.627-12.488-9.073l-.259-24.104c-.01-.944-.162-1.875-.441-2.766z" fill="url(#SVGID_00000020383889819469493600000000054525644856837545_)"/><path d="m341.157 91.702-22.844-7.695c-1.857-.626-3.479-1.804-4.648-3.377l-14.378-19.348c-1.922-2.587-4.82-3.88-7.718-3.88v99.634c.969 0 1.938.146 2.873.439l23.004 7.202c6.151 1.926 12.419-2.627 12.488-9.073l.259-24.104c.021-1.96.641-3.866 1.775-5.464l13.958-19.653c3.734-5.256 1.34-12.623-4.769-14.681z" fill="url(#SVGID_00000121983986464498949030000000377810911783855551_)"/><path d="m341.157 91.702-22.844-7.695c-1.857-.626-3.479-1.804-4.648-3.377l-14.378-19.348c-1.922-2.587-4.82-3.88-7.718-3.88v99.634c.969 0 1.938.146 2.873.439l23.004 7.202c6.151 1.926 12.419-2.627 12.488-9.073l.259-24.104c.021-1.96.641-3.866 1.775-5.464l13.958-19.653c3.734-5.256 1.34-12.623-4.769-14.681z" fill="url(#SVGID_00000100351072875394874490000001539812232014995376_)"/><path d="m252.546 128.884c.249.845.389 1.724.398 2.615l.259 24.104c.069 6.446 6.336 10.999 12.488 9.073l23.004-7.202c1.87-.586 3.875-.586 5.746 0l23.004 7.202c6.151 1.926 12.419-2.627 12.488-9.073l.259-24.104c.01-.891.149-1.77.398-2.615z" fill="url(#SVGID_00000083792889704449673770000011701999224938296209_)"/><path d="m293.222 137.848 13.234 4.143c3.539 1.108 7.144-1.512 7.184-5.22l.149-13.867c.012-1.127.369-2.224 1.021-3.144l8.03-11.306c2.147-3.023.77-7.262-2.744-8.445l-13.142-4.427c-1.069-.36-2.002-1.038-2.674-1.943l-8.271-11.131c-2.212-2.976-6.668-2.976-8.88 0l-8.271 11.131c-.673.905-1.606 1.583-2.674 1.943l-13.142 4.427c-3.514 1.184-4.891 5.422-2.744 8.445l8.03 11.306c.653.919 1.009 2.016 1.021 3.144l.149 13.867c.04 3.708 3.645 6.327 7.184 5.22l13.234-4.143c1.076-.337 2.23-.337 3.306 0z" fill="url(#SVGID_00000037694807134203247360000013582897128712941501_)"/></g><g><path d="m419.551 157.475 23.004 7.202c6.151 1.926 12.419-2.627 12.488-9.073l.259-24.104c.021-1.96.641-3.867 1.776-5.464l13.958-19.653c3.732-5.255 1.339-12.623-4.77-14.68l-22.844-7.695c-1.857-.626-3.479-1.804-4.648-3.377l-14.378-19.348c-3.845-5.174-11.591-5.174-15.436 0l-14.378 19.347c-1.169 1.573-2.791 2.752-4.648 3.377l-22.844 7.695c-6.109 2.058-8.502 9.425-4.77 14.68l13.958 19.653c1.135 1.598 1.754 3.505 1.776 5.464l.259 24.104c.069 6.446 6.336 10.999 12.488 9.073l23.004-7.202c1.871-.585 3.875-.585 5.746.001z" fill="url(#SVGID_00000112634583980703449600000017543491823982264978_)"/><path d="m361.501 96.639c-1.444 3.007-1.326 6.723.819 9.743l13.958 19.653c1.135 1.598 1.754 3.505 1.776 5.464l.259 24.104c.069 6.446 6.336 10.999 12.488 9.073l23.004-7.202c1.87-.586 3.875-.586 5.746 0l23.004 7.202c6.151 1.926 12.419-2.627 12.488-9.073l.259-24.104c.01-.944.162-1.875.441-2.766z" fill="url(#SVGID_00000059311600229818057520000018229841156503872135_)"/><path d="m471.857 96.639c1.444 3.007 1.326 6.723-.819 9.743l-13.958 19.653c-1.135 1.598-1.754 3.505-1.776 5.464l-.259 24.104c-.069 6.446-6.336 10.999-12.488 9.073l-23.004-7.202c-1.87-.586-3.875-.586-5.746 0l-23.004 7.202c-6.151 1.926-12.419-2.627-12.488-9.073l-.259-24.104c-.01-.944-.162-1.875-.441-2.766z" fill="url(#SVGID_00000091718528551445675440000009276477974196946587_)"/><path d="m466.266 91.702-22.844-7.695c-1.857-.626-3.479-1.804-4.648-3.377l-14.378-19.348c-1.922-2.587-4.82-3.88-7.718-3.88v99.634c.969 0 1.938.146 2.873.439l23.004 7.202c6.151 1.926 12.419-2.627 12.488-9.073l.259-24.104c.021-1.96.641-3.866 1.775-5.464l13.958-19.653c3.733-5.256 1.34-12.623-4.769-14.681z" fill="url(#SVGID_00000026881384706385628490000015916336633320910264_)"/><path d="m466.266 91.702-22.844-7.695c-1.857-.626-3.479-1.804-4.648-3.377l-14.378-19.348c-1.922-2.587-4.82-3.88-7.718-3.88v99.634c.969 0 1.938.146 2.873.439l23.004 7.202c6.151 1.926 12.419-2.627 12.488-9.073l.259-24.104c.021-1.96.641-3.866 1.775-5.464l13.958-19.653c3.733-5.256 1.34-12.623-4.769-14.681z" fill="url(#SVGID_00000079477365232849349140000007115688135480215955_)"/><path d="m377.655 128.884c.249.845.389 1.724.398 2.615l.259 24.104c.069 6.446 6.336 10.999 12.488 9.073l23.004-7.202c1.87-.586 3.875-.586 5.746 0l23.004 7.202c6.151 1.926 12.419-2.627 12.488-9.073l.259-24.104c.01-.891.149-1.77.398-2.615z" fill="url(#SVGID_00000085969772924559765900000003546354930162116993_)"/><path d="m418.331 137.848 13.234 4.143c3.539 1.108 7.144-1.512 7.184-5.22l.149-13.867c.012-1.127.369-2.224 1.021-3.144l8.03-11.306c2.147-3.023.77-7.262-2.744-8.445l-13.142-4.427c-1.069-.36-2.002-1.038-2.674-1.943l-8.271-11.131c-2.212-2.976-6.668-2.976-8.88 0l-8.271 11.131c-.673.905-1.606 1.583-2.674 1.943l-13.142 4.427c-3.514 1.184-4.891 5.422-2.744 8.445l8.03 11.306c.653.919 1.009 2.016 1.021 3.144l.149 13.867c.04 3.708 3.645 6.327 7.184 5.22l13.234-4.143c1.076-.337 2.23-.337 3.306 0z" fill="url(#SVGID_00000159468363602908366100000012506699272598086051_)"/></g></g></svg>